%FSLAX45Y45*%
G04 Gerber Fmt 4.5, Leading zero omitted, Abs format (unit mm)*
G04 Created by KiCad (PCBNEW 6.0.2+dfsg-1) date 2022-07-08 08:02:09*
%MOMM*%
%LPD*%
G01*
G04 APERTURE LIST*
%TA.AperFunction,Profile*%
%ADD10C,0.150000*%
%TD*%
%ADD11C,0.200000*%
%ADD12C,0.025400*%
%ADD13C,0.100000*%
%ADD14C,0.300000*%
G04 APERTURE END LIST*
D10*
X12300000Y-9900000D02*
X12300000Y-3900000D01*
X12300000Y-3900000D02*
X14500000Y-3900000D01*
X14500000Y-3900000D02*
X14500000Y-9900000D01*
X14500000Y-9900000D02*
X12300000Y-9900000D01*
D11*
D12*
X12573000Y-6841950D02*
X12598400Y-6867350D01*
X12598400Y-6841950D02*
X12573000Y-6867350D01*
X12651740Y-5759450D02*
X12677140Y-5784850D01*
X12677140Y-5759450D02*
X12651740Y-5784850D01*
X12960350Y-6337300D02*
X12985750Y-6362700D01*
X12985750Y-6337300D02*
X12960350Y-6362700D01*
X13296900Y-8045200D02*
X13322300Y-8070600D01*
X13322300Y-8045200D02*
X13296900Y-8070600D01*
X13296900Y-8998200D02*
X13322300Y-9023600D01*
X13322300Y-8998200D02*
X13296900Y-9023600D01*
X13505850Y-5162550D02*
X13531250Y-5187950D01*
X13531250Y-5162550D02*
X13505850Y-5187950D01*
X13516600Y-8013700D02*
X13542000Y-8039100D01*
X13542000Y-8013700D02*
X13516600Y-8039100D01*
X13537260Y-8596380D02*
X13562660Y-8621780D01*
X13562660Y-8596380D02*
X13537260Y-8621780D01*
X13563600Y-7277100D02*
X13589000Y-7302500D01*
X13589000Y-7277100D02*
X13563600Y-7302500D01*
X13563600Y-7327900D02*
X13589000Y-7353300D01*
X13589000Y-7327900D02*
X13563600Y-7353300D01*
X13563600Y-7378700D02*
X13589000Y-7404100D01*
X13589000Y-7378700D02*
X13563600Y-7404100D01*
X13589000Y-5816600D02*
X13614400Y-5842000D01*
X13614400Y-5816600D02*
X13589000Y-5842000D01*
X13589010Y-5664200D02*
X13614410Y-5689600D01*
X13614410Y-5664200D02*
X13589010Y-5689600D01*
X13614400Y-7277100D02*
X13639800Y-7302500D01*
X13639800Y-7277100D02*
X13614400Y-7302500D01*
X13614400Y-7327900D02*
X13639800Y-7353300D01*
X13639800Y-7327900D02*
X13614400Y-7353300D01*
X13614400Y-7378700D02*
X13639800Y-7404100D01*
X13639800Y-7378700D02*
X13614400Y-7404100D01*
X13627100Y-6438900D02*
X13652500Y-6464300D01*
X13652500Y-6438900D02*
X13627100Y-6464300D01*
X13627100Y-6489700D02*
X13652500Y-6515100D01*
X13652500Y-6489700D02*
X13627100Y-6515100D01*
X13627100Y-6540500D02*
X13652500Y-6565900D01*
X13652500Y-6540500D02*
X13627100Y-6565900D01*
X13665200Y-7277100D02*
X13690600Y-7302500D01*
X13690600Y-7277100D02*
X13665200Y-7302500D01*
X13665200Y-7327900D02*
X13690600Y-7353300D01*
X13690600Y-7327900D02*
X13665200Y-7353300D01*
X13665200Y-7378700D02*
X13690600Y-7404100D01*
X13690600Y-7378700D02*
X13665200Y-7404100D01*
X13677900Y-6438900D02*
X13703300Y-6464300D01*
X13703300Y-6438900D02*
X13677900Y-6464300D01*
X13677900Y-6489700D02*
X13703300Y-6515100D01*
X13703300Y-6489700D02*
X13677900Y-6515100D01*
X13677900Y-6540500D02*
X13703300Y-6565900D01*
X13703300Y-6540500D02*
X13677900Y-6565900D01*
X13716000Y-7277100D02*
X13741400Y-7302500D01*
X13741400Y-7277100D02*
X13716000Y-7302500D01*
X13716000Y-7327900D02*
X13741400Y-7353300D01*
X13741400Y-7327900D02*
X13716000Y-7353300D01*
X13716000Y-7378700D02*
X13741400Y-7404100D01*
X13741400Y-7378700D02*
X13716000Y-7404100D01*
X13728700Y-6438900D02*
X13754100Y-6464300D01*
X13754100Y-6438900D02*
X13728700Y-6464300D01*
X13728700Y-6489700D02*
X13754100Y-6515100D01*
X13754100Y-6489700D02*
X13728700Y-6515100D01*
X13728700Y-6540500D02*
X13754100Y-6565900D01*
X13754100Y-6540500D02*
X13728700Y-6565900D01*
X13807440Y-6946900D02*
X13832840Y-6972300D01*
X13832840Y-6946900D02*
X13807440Y-6972300D01*
X13830300Y-5503700D02*
X13855700Y-5529100D01*
X13855700Y-5503700D02*
X13830300Y-5529100D01*
X13830300Y-5979400D02*
X13855700Y-6004800D01*
X13855700Y-5979400D02*
X13830300Y-6004800D01*
X13886180Y-6637010D02*
X13911580Y-6662410D01*
X13911580Y-6637010D02*
X13886180Y-6662410D01*
D13*
X14274000Y-4978400D02*
G75*
G03*
X14274000Y-4978400I-50000J0D01*
G01*
X14274000Y-5232400D02*
G75*
G03*
X14274000Y-5232400I-50000J0D01*
G01*
X14274000Y-5486400D02*
G75*
G03*
X14274000Y-5486400I-50000J0D01*
G01*
X14274000Y-5740400D02*
G75*
G03*
X14274000Y-5740400I-50000J0D01*
G01*
X14274000Y-5994400D02*
G75*
G03*
X14274000Y-5994400I-50000J0D01*
G01*
X14274000Y-6248400D02*
G75*
G03*
X14274000Y-6248400I-50000J0D01*
G01*
X14274000Y-6502400D02*
G75*
G03*
X14274000Y-6502400I-50000J0D01*
G01*
X14274000Y-6756400D02*
G75*
G03*
X14274000Y-6756400I-50000J0D01*
G01*
X14274000Y-7010400D02*
G75*
G03*
X14274000Y-7010400I-50000J0D01*
G01*
X14274000Y-7264400D02*
G75*
G03*
X14274000Y-7264400I-50000J0D01*
G01*
X14274000Y-7518400D02*
G75*
G03*
X14274000Y-7518400I-50000J0D01*
G01*
X14274000Y-7772400D02*
G75*
G03*
X14274000Y-7772400I-50000J0D01*
G01*
X14274000Y-8026400D02*
G75*
G03*
X14274000Y-8026400I-50000J0D01*
G01*
X14274000Y-8280400D02*
G75*
G03*
X14274000Y-8280400I-50000J0D01*
G01*
X14274000Y-8534400D02*
G75*
G03*
X14274000Y-8534400I-50000J0D01*
G01*
X14274000Y-8788400D02*
G75*
G03*
X14274000Y-8788400I-50000J0D01*
G01*
D14*
X12700000Y-4150000D02*
X12700000Y-4450000D01*
X12550000Y-4300000D02*
X12850000Y-4300000D01*
X12700000Y-9350000D02*
X12700000Y-9650000D01*
X12550000Y-9500000D02*
X12850000Y-9500000D01*
X14100000Y-4150000D02*
X14100000Y-4450000D01*
X13950000Y-4300000D02*
X14250000Y-4300000D01*
X14100000Y-9350000D02*
X14100000Y-9650000D01*
X13950000Y-9500000D02*
X14250000Y-9500000D01*
D11*
X12550119Y-10217976D02*
X12550119Y-10017976D01*
X12597738Y-10017976D01*
X12626309Y-10027500D01*
X12645357Y-10046548D01*
X12654881Y-10065595D01*
X12664405Y-10103690D01*
X12664405Y-10132262D01*
X12654881Y-10170357D01*
X12645357Y-10189405D01*
X12626309Y-10208452D01*
X12597738Y-10217976D01*
X12550119Y-10217976D01*
X12750119Y-10217976D02*
X12750119Y-10084643D01*
X12750119Y-10122738D02*
X12759643Y-10103690D01*
X12769167Y-10094167D01*
X12788214Y-10084643D01*
X12807262Y-10084643D01*
X12873928Y-10217976D02*
X12873928Y-10084643D01*
X12873928Y-10017976D02*
X12864405Y-10027500D01*
X12873928Y-10037024D01*
X12883452Y-10027500D01*
X12873928Y-10017976D01*
X12873928Y-10037024D01*
X12997738Y-10217976D02*
X12978690Y-10208452D01*
X12969167Y-10189405D01*
X12969167Y-10017976D01*
X13102500Y-10217976D02*
X13083452Y-10208452D01*
X13073928Y-10189405D01*
X13073928Y-10017976D01*
X13331071Y-10217976D02*
X13331071Y-10017976D01*
X13397738Y-10160833D01*
X13464405Y-10017976D01*
X13464405Y-10217976D01*
X13645357Y-10217976D02*
X13645357Y-10113214D01*
X13635833Y-10094167D01*
X13616786Y-10084643D01*
X13578690Y-10084643D01*
X13559643Y-10094167D01*
X13645357Y-10208452D02*
X13626309Y-10217976D01*
X13578690Y-10217976D01*
X13559643Y-10208452D01*
X13550119Y-10189405D01*
X13550119Y-10170357D01*
X13559643Y-10151310D01*
X13578690Y-10141786D01*
X13626309Y-10141786D01*
X13645357Y-10132262D01*
X13740595Y-10084643D02*
X13740595Y-10284643D01*
X13740595Y-10094167D02*
X13759643Y-10084643D01*
X13797738Y-10084643D01*
X13816786Y-10094167D01*
X13826309Y-10103690D01*
X13835833Y-10122738D01*
X13835833Y-10179881D01*
X13826309Y-10198929D01*
X13816786Y-10208452D01*
X13797738Y-10217976D01*
X13759643Y-10217976D01*
X13740595Y-10208452D01*
X13921548Y-10198929D02*
X13931071Y-10208452D01*
X13921548Y-10217976D01*
X13912024Y-10208452D01*
X13921548Y-10198929D01*
X13921548Y-10217976D01*
X13921548Y-10094167D02*
X13931071Y-10103690D01*
X13921548Y-10113214D01*
X13912024Y-10103690D01*
X13921548Y-10094167D01*
X13921548Y-10113214D01*
D12*
X12267100Y-10534800D02*
X12292500Y-10560200D01*
X12292500Y-10534800D02*
X12267100Y-10560200D01*
D11*
X12588214Y-10437976D02*
X12607262Y-10437976D01*
X12626309Y-10447500D01*
X12635833Y-10457024D01*
X12645357Y-10476071D01*
X12654881Y-10514167D01*
X12654881Y-10561786D01*
X12645357Y-10599881D01*
X12635833Y-10618929D01*
X12626309Y-10628452D01*
X12607262Y-10637976D01*
X12588214Y-10637976D01*
X12569167Y-10628452D01*
X12559643Y-10618929D01*
X12550119Y-10599881D01*
X12540595Y-10561786D01*
X12540595Y-10514167D01*
X12550119Y-10476071D01*
X12559643Y-10457024D01*
X12569167Y-10447500D01*
X12588214Y-10437976D01*
X12740595Y-10618929D02*
X12750119Y-10628452D01*
X12740595Y-10637976D01*
X12731071Y-10628452D01*
X12740595Y-10618929D01*
X12740595Y-10637976D01*
X12826309Y-10457024D02*
X12835833Y-10447500D01*
X12854881Y-10437976D01*
X12902500Y-10437976D01*
X12921548Y-10447500D01*
X12931071Y-10457024D01*
X12940595Y-10476071D01*
X12940595Y-10495119D01*
X12931071Y-10523690D01*
X12816786Y-10637976D01*
X12940595Y-10637976D01*
X13121548Y-10437976D02*
X13026309Y-10437976D01*
X13016786Y-10533214D01*
X13026309Y-10523690D01*
X13045357Y-10514167D01*
X13092976Y-10514167D01*
X13112024Y-10523690D01*
X13121548Y-10533214D01*
X13131071Y-10552262D01*
X13131071Y-10599881D01*
X13121548Y-10618929D01*
X13112024Y-10628452D01*
X13092976Y-10637976D01*
X13045357Y-10637976D01*
X13026309Y-10628452D01*
X13016786Y-10618929D01*
X13302500Y-10504643D02*
X13302500Y-10637976D01*
X13254881Y-10428452D02*
X13207262Y-10571310D01*
X13331071Y-10571310D01*
X13407262Y-10637976D02*
X13407262Y-10504643D01*
X13407262Y-10523690D02*
X13416786Y-10514167D01*
X13435833Y-10504643D01*
X13464405Y-10504643D01*
X13483452Y-10514167D01*
X13492976Y-10533214D01*
X13492976Y-10637976D01*
X13492976Y-10533214D02*
X13502500Y-10514167D01*
X13521548Y-10504643D01*
X13550119Y-10504643D01*
X13569167Y-10514167D01*
X13578690Y-10533214D01*
X13578690Y-10637976D01*
X13673928Y-10637976D02*
X13673928Y-10504643D01*
X13673928Y-10523690D02*
X13683452Y-10514167D01*
X13702500Y-10504643D01*
X13731071Y-10504643D01*
X13750119Y-10514167D01*
X13759643Y-10533214D01*
X13759643Y-10637976D01*
X13759643Y-10533214D02*
X13769167Y-10514167D01*
X13788214Y-10504643D01*
X13816786Y-10504643D01*
X13835833Y-10514167D01*
X13845357Y-10533214D01*
X13845357Y-10637976D01*
X14235833Y-10428452D02*
X14064405Y-10685595D01*
X14492976Y-10437976D02*
X14512024Y-10437976D01*
X14531071Y-10447500D01*
X14540595Y-10457024D01*
X14550119Y-10476071D01*
X14559643Y-10514167D01*
X14559643Y-10561786D01*
X14550119Y-10599881D01*
X14540595Y-10618929D01*
X14531071Y-10628452D01*
X14512024Y-10637976D01*
X14492976Y-10637976D01*
X14473928Y-10628452D01*
X14464405Y-10618929D01*
X14454881Y-10599881D01*
X14445357Y-10561786D01*
X14445357Y-10514167D01*
X14454881Y-10476071D01*
X14464405Y-10457024D01*
X14473928Y-10447500D01*
X14492976Y-10437976D01*
X14645357Y-10618929D02*
X14654881Y-10628452D01*
X14645357Y-10637976D01*
X14635833Y-10628452D01*
X14645357Y-10618929D01*
X14645357Y-10637976D01*
X14778690Y-10437976D02*
X14797738Y-10437976D01*
X14816786Y-10447500D01*
X14826309Y-10457024D01*
X14835833Y-10476071D01*
X14845357Y-10514167D01*
X14845357Y-10561786D01*
X14835833Y-10599881D01*
X14826309Y-10618929D01*
X14816786Y-10628452D01*
X14797738Y-10637976D01*
X14778690Y-10637976D01*
X14759643Y-10628452D01*
X14750119Y-10618929D01*
X14740595Y-10599881D01*
X14731071Y-10561786D01*
X14731071Y-10514167D01*
X14740595Y-10476071D01*
X14750119Y-10457024D01*
X14759643Y-10447500D01*
X14778690Y-10437976D01*
X15035833Y-10637976D02*
X14921548Y-10637976D01*
X14978690Y-10637976D02*
X14978690Y-10437976D01*
X14959643Y-10466548D01*
X14940595Y-10485595D01*
X14921548Y-10495119D01*
X15159643Y-10437976D02*
X15178690Y-10437976D01*
X15197738Y-10447500D01*
X15207262Y-10457024D01*
X15216786Y-10476071D01*
X15226309Y-10514167D01*
X15226309Y-10561786D01*
X15216786Y-10599881D01*
X15207262Y-10618929D01*
X15197738Y-10628452D01*
X15178690Y-10637976D01*
X15159643Y-10637976D01*
X15140595Y-10628452D01*
X15131071Y-10618929D01*
X15121548Y-10599881D01*
X15112024Y-10561786D01*
X15112024Y-10514167D01*
X15121548Y-10476071D01*
X15131071Y-10457024D01*
X15140595Y-10447500D01*
X15159643Y-10437976D01*
X15350119Y-10437976D02*
X15369167Y-10437976D01*
X15388214Y-10447500D01*
X15397738Y-10457024D01*
X15407262Y-10476071D01*
X15416786Y-10514167D01*
X15416786Y-10561786D01*
X15407262Y-10599881D01*
X15397738Y-10618929D01*
X15388214Y-10628452D01*
X15369167Y-10637976D01*
X15350119Y-10637976D01*
X15331071Y-10628452D01*
X15321548Y-10618929D01*
X15312024Y-10599881D01*
X15302500Y-10561786D01*
X15302500Y-10514167D01*
X15312024Y-10476071D01*
X15321548Y-10457024D01*
X15331071Y-10447500D01*
X15350119Y-10437976D01*
X15492976Y-10437976D02*
X15492976Y-10476071D01*
X15569167Y-10437976D02*
X15569167Y-10476071D01*
X15864405Y-10714167D02*
X15854881Y-10704643D01*
X15835833Y-10676071D01*
X15826309Y-10657024D01*
X15816786Y-10628452D01*
X15807262Y-10580833D01*
X15807262Y-10542738D01*
X15816786Y-10495119D01*
X15826309Y-10466548D01*
X15835833Y-10447500D01*
X15854881Y-10418929D01*
X15864405Y-10409405D01*
X15921548Y-10437976D02*
X16045357Y-10437976D01*
X15978690Y-10514167D01*
X16007262Y-10514167D01*
X16026309Y-10523690D01*
X16035833Y-10533214D01*
X16045357Y-10552262D01*
X16045357Y-10599881D01*
X16035833Y-10618929D01*
X16026309Y-10628452D01*
X16007262Y-10637976D01*
X15950119Y-10637976D01*
X15931071Y-10628452D01*
X15921548Y-10618929D01*
X16226309Y-10437976D02*
X16131071Y-10437976D01*
X16121548Y-10533214D01*
X16131071Y-10523690D01*
X16150119Y-10514167D01*
X16197738Y-10514167D01*
X16216786Y-10523690D01*
X16226309Y-10533214D01*
X16235833Y-10552262D01*
X16235833Y-10599881D01*
X16226309Y-10618929D01*
X16216786Y-10628452D01*
X16197738Y-10637976D01*
X16150119Y-10637976D01*
X16131071Y-10628452D01*
X16121548Y-10618929D01*
X16473928Y-10637976D02*
X16473928Y-10437976D01*
X16559643Y-10637976D02*
X16559643Y-10533214D01*
X16550119Y-10514167D01*
X16531071Y-10504643D01*
X16502500Y-10504643D01*
X16483452Y-10514167D01*
X16473928Y-10523690D01*
X16683452Y-10637976D02*
X16664405Y-10628452D01*
X16654881Y-10618929D01*
X16645357Y-10599881D01*
X16645357Y-10542738D01*
X16654881Y-10523690D01*
X16664405Y-10514167D01*
X16683452Y-10504643D01*
X16712024Y-10504643D01*
X16731071Y-10514167D01*
X16740595Y-10523690D01*
X16750119Y-10542738D01*
X16750119Y-10599881D01*
X16740595Y-10618929D01*
X16731071Y-10628452D01*
X16712024Y-10637976D01*
X16683452Y-10637976D01*
X16864405Y-10637976D02*
X16845357Y-10628452D01*
X16835833Y-10609405D01*
X16835833Y-10437976D01*
X17016786Y-10628452D02*
X16997738Y-10637976D01*
X16959643Y-10637976D01*
X16940595Y-10628452D01*
X16931071Y-10609405D01*
X16931071Y-10533214D01*
X16940595Y-10514167D01*
X16959643Y-10504643D01*
X16997738Y-10504643D01*
X17016786Y-10514167D01*
X17026310Y-10533214D01*
X17026310Y-10552262D01*
X16931071Y-10571310D01*
X17102500Y-10628452D02*
X17121548Y-10637976D01*
X17159643Y-10637976D01*
X17178690Y-10628452D01*
X17188214Y-10609405D01*
X17188214Y-10599881D01*
X17178690Y-10580833D01*
X17159643Y-10571310D01*
X17131071Y-10571310D01*
X17112024Y-10561786D01*
X17102500Y-10542738D01*
X17102500Y-10533214D01*
X17112024Y-10514167D01*
X17131071Y-10504643D01*
X17159643Y-10504643D01*
X17178690Y-10514167D01*
X17254881Y-10714167D02*
X17264405Y-10704643D01*
X17283452Y-10676071D01*
X17292976Y-10657024D01*
X17302500Y-10628452D01*
X17312024Y-10580833D01*
X17312024Y-10542738D01*
X17302500Y-10495119D01*
X17292976Y-10466548D01*
X17283452Y-10447500D01*
X17264405Y-10418929D01*
X17254881Y-10409405D01*
D13*
X12292500Y-10811500D02*
G75*
G03*
X12292500Y-10811500I-50000J0D01*
G01*
D11*
X12654881Y-10901976D02*
X12540595Y-10901976D01*
X12597738Y-10901976D02*
X12597738Y-10701976D01*
X12578690Y-10730548D01*
X12559643Y-10749595D01*
X12540595Y-10759119D01*
X12740595Y-10882929D02*
X12750119Y-10892452D01*
X12740595Y-10901976D01*
X12731071Y-10892452D01*
X12740595Y-10882929D01*
X12740595Y-10901976D01*
X12873928Y-10701976D02*
X12892976Y-10701976D01*
X12912024Y-10711500D01*
X12921548Y-10721024D01*
X12931071Y-10740071D01*
X12940595Y-10778167D01*
X12940595Y-10825786D01*
X12931071Y-10863881D01*
X12921548Y-10882929D01*
X12912024Y-10892452D01*
X12892976Y-10901976D01*
X12873928Y-10901976D01*
X12854881Y-10892452D01*
X12845357Y-10882929D01*
X12835833Y-10863881D01*
X12826309Y-10825786D01*
X12826309Y-10778167D01*
X12835833Y-10740071D01*
X12845357Y-10721024D01*
X12854881Y-10711500D01*
X12873928Y-10701976D01*
X13064405Y-10701976D02*
X13083452Y-10701976D01*
X13102500Y-10711500D01*
X13112024Y-10721024D01*
X13121548Y-10740071D01*
X13131071Y-10778167D01*
X13131071Y-10825786D01*
X13121548Y-10863881D01*
X13112024Y-10882929D01*
X13102500Y-10892452D01*
X13083452Y-10901976D01*
X13064405Y-10901976D01*
X13045357Y-10892452D01*
X13035833Y-10882929D01*
X13026309Y-10863881D01*
X13016786Y-10825786D01*
X13016786Y-10778167D01*
X13026309Y-10740071D01*
X13035833Y-10721024D01*
X13045357Y-10711500D01*
X13064405Y-10701976D01*
X13254881Y-10701976D02*
X13273928Y-10701976D01*
X13292976Y-10711500D01*
X13302500Y-10721024D01*
X13312024Y-10740071D01*
X13321548Y-10778167D01*
X13321548Y-10825786D01*
X13312024Y-10863881D01*
X13302500Y-10882929D01*
X13292976Y-10892452D01*
X13273928Y-10901976D01*
X13254881Y-10901976D01*
X13235833Y-10892452D01*
X13226309Y-10882929D01*
X13216786Y-10863881D01*
X13207262Y-10825786D01*
X13207262Y-10778167D01*
X13216786Y-10740071D01*
X13226309Y-10721024D01*
X13235833Y-10711500D01*
X13254881Y-10701976D01*
X13407262Y-10901976D02*
X13407262Y-10768643D01*
X13407262Y-10787690D02*
X13416786Y-10778167D01*
X13435833Y-10768643D01*
X13464405Y-10768643D01*
X13483452Y-10778167D01*
X13492976Y-10797214D01*
X13492976Y-10901976D01*
X13492976Y-10797214D02*
X13502500Y-10778167D01*
X13521548Y-10768643D01*
X13550119Y-10768643D01*
X13569167Y-10778167D01*
X13578690Y-10797214D01*
X13578690Y-10901976D01*
X13673928Y-10901976D02*
X13673928Y-10768643D01*
X13673928Y-10787690D02*
X13683452Y-10778167D01*
X13702500Y-10768643D01*
X13731071Y-10768643D01*
X13750119Y-10778167D01*
X13759643Y-10797214D01*
X13759643Y-10901976D01*
X13759643Y-10797214D02*
X13769167Y-10778167D01*
X13788214Y-10768643D01*
X13816786Y-10768643D01*
X13835833Y-10778167D01*
X13845357Y-10797214D01*
X13845357Y-10901976D01*
X14235833Y-10692452D02*
X14064405Y-10949595D01*
X14492976Y-10701976D02*
X14512024Y-10701976D01*
X14531071Y-10711500D01*
X14540595Y-10721024D01*
X14550119Y-10740071D01*
X14559643Y-10778167D01*
X14559643Y-10825786D01*
X14550119Y-10863881D01*
X14540595Y-10882929D01*
X14531071Y-10892452D01*
X14512024Y-10901976D01*
X14492976Y-10901976D01*
X14473928Y-10892452D01*
X14464405Y-10882929D01*
X14454881Y-10863881D01*
X14445357Y-10825786D01*
X14445357Y-10778167D01*
X14454881Y-10740071D01*
X14464405Y-10721024D01*
X14473928Y-10711500D01*
X14492976Y-10701976D01*
X14645357Y-10882929D02*
X14654881Y-10892452D01*
X14645357Y-10901976D01*
X14635833Y-10892452D01*
X14645357Y-10882929D01*
X14645357Y-10901976D01*
X14778690Y-10701976D02*
X14797738Y-10701976D01*
X14816786Y-10711500D01*
X14826309Y-10721024D01*
X14835833Y-10740071D01*
X14845357Y-10778167D01*
X14845357Y-10825786D01*
X14835833Y-10863881D01*
X14826309Y-10882929D01*
X14816786Y-10892452D01*
X14797738Y-10901976D01*
X14778690Y-10901976D01*
X14759643Y-10892452D01*
X14750119Y-10882929D01*
X14740595Y-10863881D01*
X14731071Y-10825786D01*
X14731071Y-10778167D01*
X14740595Y-10740071D01*
X14750119Y-10721024D01*
X14759643Y-10711500D01*
X14778690Y-10701976D01*
X14912024Y-10701976D02*
X15035833Y-10701976D01*
X14969167Y-10778167D01*
X14997738Y-10778167D01*
X15016786Y-10787690D01*
X15026309Y-10797214D01*
X15035833Y-10816262D01*
X15035833Y-10863881D01*
X15026309Y-10882929D01*
X15016786Y-10892452D01*
X14997738Y-10901976D01*
X14940595Y-10901976D01*
X14921548Y-10892452D01*
X14912024Y-10882929D01*
X15131071Y-10901976D02*
X15169167Y-10901976D01*
X15188214Y-10892452D01*
X15197738Y-10882929D01*
X15216786Y-10854357D01*
X15226309Y-10816262D01*
X15226309Y-10740071D01*
X15216786Y-10721024D01*
X15207262Y-10711500D01*
X15188214Y-10701976D01*
X15150119Y-10701976D01*
X15131071Y-10711500D01*
X15121548Y-10721024D01*
X15112024Y-10740071D01*
X15112024Y-10787690D01*
X15121548Y-10806738D01*
X15131071Y-10816262D01*
X15150119Y-10825786D01*
X15188214Y-10825786D01*
X15207262Y-10816262D01*
X15216786Y-10806738D01*
X15226309Y-10787690D01*
X15397738Y-10768643D02*
X15397738Y-10901976D01*
X15350119Y-10692452D02*
X15302500Y-10835310D01*
X15426309Y-10835310D01*
X15492976Y-10701976D02*
X15492976Y-10740071D01*
X15569167Y-10701976D02*
X15569167Y-10740071D01*
X15864405Y-10978167D02*
X15854881Y-10968643D01*
X15835833Y-10940071D01*
X15826309Y-10921024D01*
X15816786Y-10892452D01*
X15807262Y-10844833D01*
X15807262Y-10806738D01*
X15816786Y-10759119D01*
X15826309Y-10730548D01*
X15835833Y-10711500D01*
X15854881Y-10682929D01*
X15864405Y-10673405D01*
X16045357Y-10901976D02*
X15931071Y-10901976D01*
X15988214Y-10901976D02*
X15988214Y-10701976D01*
X15969167Y-10730548D01*
X15950119Y-10749595D01*
X15931071Y-10759119D01*
X16216786Y-10701976D02*
X16178690Y-10701976D01*
X16159643Y-10711500D01*
X16150119Y-10721024D01*
X16131071Y-10749595D01*
X16121548Y-10787690D01*
X16121548Y-10863881D01*
X16131071Y-10882929D01*
X16140595Y-10892452D01*
X16159643Y-10901976D01*
X16197738Y-10901976D01*
X16216786Y-10892452D01*
X16226309Y-10882929D01*
X16235833Y-10863881D01*
X16235833Y-10816262D01*
X16226309Y-10797214D01*
X16216786Y-10787690D01*
X16197738Y-10778167D01*
X16159643Y-10778167D01*
X16140595Y-10787690D01*
X16131071Y-10797214D01*
X16121548Y-10816262D01*
X16473928Y-10901976D02*
X16473928Y-10701976D01*
X16559643Y-10901976D02*
X16559643Y-10797214D01*
X16550119Y-10778167D01*
X16531071Y-10768643D01*
X16502500Y-10768643D01*
X16483452Y-10778167D01*
X16473928Y-10787690D01*
X16683452Y-10901976D02*
X16664405Y-10892452D01*
X16654881Y-10882929D01*
X16645357Y-10863881D01*
X16645357Y-10806738D01*
X16654881Y-10787690D01*
X16664405Y-10778167D01*
X16683452Y-10768643D01*
X16712024Y-10768643D01*
X16731071Y-10778167D01*
X16740595Y-10787690D01*
X16750119Y-10806738D01*
X16750119Y-10863881D01*
X16740595Y-10882929D01*
X16731071Y-10892452D01*
X16712024Y-10901976D01*
X16683452Y-10901976D01*
X16864405Y-10901976D02*
X16845357Y-10892452D01*
X16835833Y-10873405D01*
X16835833Y-10701976D01*
X17016786Y-10892452D02*
X16997738Y-10901976D01*
X16959643Y-10901976D01*
X16940595Y-10892452D01*
X16931071Y-10873405D01*
X16931071Y-10797214D01*
X16940595Y-10778167D01*
X16959643Y-10768643D01*
X16997738Y-10768643D01*
X17016786Y-10778167D01*
X17026310Y-10797214D01*
X17026310Y-10816262D01*
X16931071Y-10835310D01*
X17102500Y-10892452D02*
X17121548Y-10901976D01*
X17159643Y-10901976D01*
X17178690Y-10892452D01*
X17188214Y-10873405D01*
X17188214Y-10863881D01*
X17178690Y-10844833D01*
X17159643Y-10835310D01*
X17131071Y-10835310D01*
X17112024Y-10825786D01*
X17102500Y-10806738D01*
X17102500Y-10797214D01*
X17112024Y-10778167D01*
X17131071Y-10768643D01*
X17159643Y-10768643D01*
X17178690Y-10778167D01*
X17254881Y-10978167D02*
X17264405Y-10968643D01*
X17283452Y-10940071D01*
X17292976Y-10921024D01*
X17302500Y-10892452D01*
X17312024Y-10844833D01*
X17312024Y-10806738D01*
X17302500Y-10759119D01*
X17292976Y-10730548D01*
X17283452Y-10711500D01*
X17264405Y-10682929D01*
X17254881Y-10673405D01*
X12192500Y-10975500D02*
X12192500Y-11175500D01*
X12092500Y-11075500D02*
X12292500Y-11075500D01*
X12531071Y-10965976D02*
X12654881Y-10965976D01*
X12588214Y-11042167D01*
X12616786Y-11042167D01*
X12635833Y-11051690D01*
X12645357Y-11061214D01*
X12654881Y-11080262D01*
X12654881Y-11127881D01*
X12645357Y-11146929D01*
X12635833Y-11156452D01*
X12616786Y-11165976D01*
X12559643Y-11165976D01*
X12540595Y-11156452D01*
X12531071Y-11146929D01*
X12740595Y-11146929D02*
X12750119Y-11156452D01*
X12740595Y-11165976D01*
X12731071Y-11156452D01*
X12740595Y-11146929D01*
X12740595Y-11165976D01*
X12873928Y-10965976D02*
X12892976Y-10965976D01*
X12912024Y-10975500D01*
X12921548Y-10985024D01*
X12931071Y-11004071D01*
X12940595Y-11042167D01*
X12940595Y-11089786D01*
X12931071Y-11127881D01*
X12921548Y-11146929D01*
X12912024Y-11156452D01*
X12892976Y-11165976D01*
X12873928Y-11165976D01*
X12854881Y-11156452D01*
X12845357Y-11146929D01*
X12835833Y-11127881D01*
X12826309Y-11089786D01*
X12826309Y-11042167D01*
X12835833Y-11004071D01*
X12845357Y-10985024D01*
X12854881Y-10975500D01*
X12873928Y-10965976D01*
X13064405Y-10965976D02*
X13083452Y-10965976D01*
X13102500Y-10975500D01*
X13112024Y-10985024D01*
X13121548Y-11004071D01*
X13131071Y-11042167D01*
X13131071Y-11089786D01*
X13121548Y-11127881D01*
X13112024Y-11146929D01*
X13102500Y-11156452D01*
X13083452Y-11165976D01*
X13064405Y-11165976D01*
X13045357Y-11156452D01*
X13035833Y-11146929D01*
X13026309Y-11127881D01*
X13016786Y-11089786D01*
X13016786Y-11042167D01*
X13026309Y-11004071D01*
X13035833Y-10985024D01*
X13045357Y-10975500D01*
X13064405Y-10965976D01*
X13254881Y-10965976D02*
X13273928Y-10965976D01*
X13292976Y-10975500D01*
X13302500Y-10985024D01*
X13312024Y-11004071D01*
X13321548Y-11042167D01*
X13321548Y-11089786D01*
X13312024Y-11127881D01*
X13302500Y-11146929D01*
X13292976Y-11156452D01*
X13273928Y-11165976D01*
X13254881Y-11165976D01*
X13235833Y-11156452D01*
X13226309Y-11146929D01*
X13216786Y-11127881D01*
X13207262Y-11089786D01*
X13207262Y-11042167D01*
X13216786Y-11004071D01*
X13226309Y-10985024D01*
X13235833Y-10975500D01*
X13254881Y-10965976D01*
X13407262Y-11165976D02*
X13407262Y-11032643D01*
X13407262Y-11051690D02*
X13416786Y-11042167D01*
X13435833Y-11032643D01*
X13464405Y-11032643D01*
X13483452Y-11042167D01*
X13492976Y-11061214D01*
X13492976Y-11165976D01*
X13492976Y-11061214D02*
X13502500Y-11042167D01*
X13521548Y-11032643D01*
X13550119Y-11032643D01*
X13569167Y-11042167D01*
X13578690Y-11061214D01*
X13578690Y-11165976D01*
X13673928Y-11165976D02*
X13673928Y-11032643D01*
X13673928Y-11051690D02*
X13683452Y-11042167D01*
X13702500Y-11032643D01*
X13731071Y-11032643D01*
X13750119Y-11042167D01*
X13759643Y-11061214D01*
X13759643Y-11165976D01*
X13759643Y-11061214D02*
X13769167Y-11042167D01*
X13788214Y-11032643D01*
X13816786Y-11032643D01*
X13835833Y-11042167D01*
X13845357Y-11061214D01*
X13845357Y-11165976D01*
X14235833Y-10956452D02*
X14064405Y-11213595D01*
X14492976Y-10965976D02*
X14512024Y-10965976D01*
X14531071Y-10975500D01*
X14540595Y-10985024D01*
X14550119Y-11004071D01*
X14559643Y-11042167D01*
X14559643Y-11089786D01*
X14550119Y-11127881D01*
X14540595Y-11146929D01*
X14531071Y-11156452D01*
X14512024Y-11165976D01*
X14492976Y-11165976D01*
X14473928Y-11156452D01*
X14464405Y-11146929D01*
X14454881Y-11127881D01*
X14445357Y-11089786D01*
X14445357Y-11042167D01*
X14454881Y-11004071D01*
X14464405Y-10985024D01*
X14473928Y-10975500D01*
X14492976Y-10965976D01*
X14645357Y-11146929D02*
X14654881Y-11156452D01*
X14645357Y-11165976D01*
X14635833Y-11156452D01*
X14645357Y-11146929D01*
X14645357Y-11165976D01*
X14845357Y-11165976D02*
X14731071Y-11165976D01*
X14788214Y-11165976D02*
X14788214Y-10965976D01*
X14769167Y-10994548D01*
X14750119Y-11013595D01*
X14731071Y-11023119D01*
X15035833Y-11165976D02*
X14921548Y-11165976D01*
X14978690Y-11165976D02*
X14978690Y-10965976D01*
X14959643Y-10994548D01*
X14940595Y-11013595D01*
X14921548Y-11023119D01*
X15150119Y-11051690D02*
X15131071Y-11042167D01*
X15121548Y-11032643D01*
X15112024Y-11013595D01*
X15112024Y-11004071D01*
X15121548Y-10985024D01*
X15131071Y-10975500D01*
X15150119Y-10965976D01*
X15188214Y-10965976D01*
X15207262Y-10975500D01*
X15216786Y-10985024D01*
X15226309Y-11004071D01*
X15226309Y-11013595D01*
X15216786Y-11032643D01*
X15207262Y-11042167D01*
X15188214Y-11051690D01*
X15150119Y-11051690D01*
X15131071Y-11061214D01*
X15121548Y-11070738D01*
X15112024Y-11089786D01*
X15112024Y-11127881D01*
X15121548Y-11146929D01*
X15131071Y-11156452D01*
X15150119Y-11165976D01*
X15188214Y-11165976D01*
X15207262Y-11156452D01*
X15216786Y-11146929D01*
X15226309Y-11127881D01*
X15226309Y-11089786D01*
X15216786Y-11070738D01*
X15207262Y-11061214D01*
X15188214Y-11051690D01*
X15416786Y-11165976D02*
X15302500Y-11165976D01*
X15359643Y-11165976D02*
X15359643Y-10965976D01*
X15340595Y-10994548D01*
X15321548Y-11013595D01*
X15302500Y-11023119D01*
X15492976Y-10965976D02*
X15492976Y-11004071D01*
X15569167Y-10965976D02*
X15569167Y-11004071D01*
X15864405Y-11242167D02*
X15854881Y-11232643D01*
X15835833Y-11204071D01*
X15826309Y-11185024D01*
X15816786Y-11156452D01*
X15807262Y-11108833D01*
X15807262Y-11070738D01*
X15816786Y-11023119D01*
X15826309Y-10994548D01*
X15835833Y-10975500D01*
X15854881Y-10946929D01*
X15864405Y-10937405D01*
X16026309Y-11032643D02*
X16026309Y-11165976D01*
X15978690Y-10956452D02*
X15931071Y-11099310D01*
X16054881Y-11099310D01*
X16283452Y-11165976D02*
X16283452Y-10965976D01*
X16369167Y-11165976D02*
X16369167Y-11061214D01*
X16359643Y-11042167D01*
X16340595Y-11032643D01*
X16312024Y-11032643D01*
X16292976Y-11042167D01*
X16283452Y-11051690D01*
X16492976Y-11165976D02*
X16473928Y-11156452D01*
X16464405Y-11146929D01*
X16454881Y-11127881D01*
X16454881Y-11070738D01*
X16464405Y-11051690D01*
X16473928Y-11042167D01*
X16492976Y-11032643D01*
X16521548Y-11032643D01*
X16540595Y-11042167D01*
X16550119Y-11051690D01*
X16559643Y-11070738D01*
X16559643Y-11127881D01*
X16550119Y-11146929D01*
X16540595Y-11156452D01*
X16521548Y-11165976D01*
X16492976Y-11165976D01*
X16673928Y-11165976D02*
X16654881Y-11156452D01*
X16645357Y-11137405D01*
X16645357Y-10965976D01*
X16826310Y-11156452D02*
X16807262Y-11165976D01*
X16769167Y-11165976D01*
X16750119Y-11156452D01*
X16740595Y-11137405D01*
X16740595Y-11061214D01*
X16750119Y-11042167D01*
X16769167Y-11032643D01*
X16807262Y-11032643D01*
X16826310Y-11042167D01*
X16835833Y-11061214D01*
X16835833Y-11080262D01*
X16740595Y-11099310D01*
X16912024Y-11156452D02*
X16931071Y-11165976D01*
X16969167Y-11165976D01*
X16988214Y-11156452D01*
X16997738Y-11137405D01*
X16997738Y-11127881D01*
X16988214Y-11108833D01*
X16969167Y-11099310D01*
X16940595Y-11099310D01*
X16921548Y-11089786D01*
X16912024Y-11070738D01*
X16912024Y-11061214D01*
X16921548Y-11042167D01*
X16940595Y-11032643D01*
X16969167Y-11032643D01*
X16988214Y-11042167D01*
X17064405Y-11242167D02*
X17073929Y-11232643D01*
X17092976Y-11204071D01*
X17102500Y-11185024D01*
X17112024Y-11156452D01*
X17121548Y-11108833D01*
X17121548Y-11070738D01*
X17112024Y-11023119D01*
X17102500Y-10994548D01*
X17092976Y-10975500D01*
X17073929Y-10946929D01*
X17064405Y-10937405D01*
M02*
