G04 #@! TF.GenerationSoftware,KiCad,Pcbnew,6.0.2+dfsg-1*
G04 #@! TF.CreationDate,2022-07-08T08:01:06-07:00*
G04 #@! TF.ProjectId,behavior_panel,62656861-7669-46f7-925f-70616e656c2e,rev?*
G04 #@! TF.SameCoordinates,Original*
G04 #@! TF.FileFunction,Legend,Bot*
G04 #@! TF.FilePolarity,Positive*
%FSLAX46Y46*%
G04 Gerber Fmt 4.6, Leading zero omitted, Abs format (unit mm)*
G04 Created by KiCad (PCBNEW 6.0.2+dfsg-1) date 2022-07-08 08:01:06*
%MOMM*%
%LPD*%
G01*
G04 APERTURE LIST*
G04 Aperture macros list*
%AMRoundRect*
0 Rectangle with rounded corners*
0 $1 Rounding radius*
0 $2 $3 $4 $5 $6 $7 $8 $9 X,Y pos of 4 corners*
0 Add a 4 corners polygon primitive as box body*
4,1,4,$2,$3,$4,$5,$6,$7,$8,$9,$2,$3,0*
0 Add four circle primitives for the rounded corners*
1,1,$1+$1,$2,$3*
1,1,$1+$1,$4,$5*
1,1,$1+$1,$6,$7*
1,1,$1+$1,$8,$9*
0 Add four rect primitives between the rounded corners*
20,1,$1+$1,$2,$3,$4,$5,0*
20,1,$1+$1,$4,$5,$6,$7,0*
20,1,$1+$1,$6,$7,$8,$9,0*
20,1,$1+$1,$8,$9,$2,$3,0*%
G04 Aperture macros list end*
%ADD10C,0.150000*%
%ADD11C,6.400000*%
%ADD12RoundRect,0.200000X0.850000X0.850000X-0.850000X0.850000X-0.850000X-0.850000X0.850000X-0.850000X0*%
%ADD13O,2.100000X2.100000*%
G04 APERTURE END LIST*
D10*
X140112476Y-84796380D02*
X139541047Y-84796380D01*
X139826761Y-85796380D02*
X139826761Y-84796380D01*
X139017238Y-84796380D02*
X138826761Y-84796380D01*
X138731523Y-84844000D01*
X138636285Y-84939238D01*
X138588666Y-85129714D01*
X138588666Y-85463047D01*
X138636285Y-85653523D01*
X138731523Y-85748761D01*
X138826761Y-85796380D01*
X139017238Y-85796380D01*
X139112476Y-85748761D01*
X139207714Y-85653523D01*
X139255333Y-85463047D01*
X139255333Y-85129714D01*
X139207714Y-84939238D01*
X139112476Y-84844000D01*
X139017238Y-84796380D01*
X137398190Y-85796380D02*
X137398190Y-84796380D01*
X137017238Y-84796380D01*
X136922000Y-84844000D01*
X136874380Y-84891619D01*
X136826761Y-84986857D01*
X136826761Y-85129714D01*
X136874380Y-85224952D01*
X136922000Y-85272571D01*
X137017238Y-85320190D01*
X137398190Y-85320190D01*
X136398190Y-85796380D02*
X136398190Y-84796380D01*
X136160095Y-84796380D01*
X136017238Y-84844000D01*
X135922000Y-84939238D01*
X135874380Y-85034476D01*
X135826761Y-85224952D01*
X135826761Y-85367809D01*
X135874380Y-85558285D01*
X135922000Y-85653523D01*
X136017238Y-85748761D01*
X136160095Y-85796380D01*
X136398190Y-85796380D01*
X139692095Y-74684000D02*
X139787333Y-74636380D01*
X139930190Y-74636380D01*
X140073047Y-74684000D01*
X140168285Y-74779238D01*
X140215904Y-74874476D01*
X140263523Y-75064952D01*
X140263523Y-75207809D01*
X140215904Y-75398285D01*
X140168285Y-75493523D01*
X140073047Y-75588761D01*
X139930190Y-75636380D01*
X139834952Y-75636380D01*
X139692095Y-75588761D01*
X139644476Y-75541142D01*
X139644476Y-75207809D01*
X139834952Y-75207809D01*
X139691619Y-80716380D02*
X140167809Y-80716380D01*
X140167809Y-79716380D01*
X139501142Y-79716380D02*
X138929714Y-79716380D01*
X139215428Y-80716380D02*
X139215428Y-79716380D01*
X137263047Y-80621142D02*
X137310666Y-80668761D01*
X137453523Y-80716380D01*
X137548761Y-80716380D01*
X137691619Y-80668761D01*
X137786857Y-80573523D01*
X137834476Y-80478285D01*
X137882095Y-80287809D01*
X137882095Y-80144952D01*
X137834476Y-79954476D01*
X137786857Y-79859238D01*
X137691619Y-79764000D01*
X137548761Y-79716380D01*
X137453523Y-79716380D01*
X137310666Y-79764000D01*
X137263047Y-79811619D01*
X136977333Y-79716380D02*
X136405904Y-79716380D01*
X136691619Y-80716380D02*
X136691619Y-79716380D01*
X135596380Y-80716380D02*
X136072571Y-80716380D01*
X136072571Y-79716380D01*
X134215428Y-81097333D02*
X134263047Y-81049714D01*
X134358285Y-80906857D01*
X134405904Y-80811619D01*
X134453523Y-80668761D01*
X134501142Y-80430666D01*
X134501142Y-80240190D01*
X134453523Y-80002095D01*
X134405904Y-79859238D01*
X134358285Y-79764000D01*
X134263047Y-79621142D01*
X134215428Y-79573523D01*
X133834476Y-80716380D02*
X133834476Y-79716380D01*
X133263047Y-80716380D01*
X133263047Y-79716380D01*
X132786857Y-80716380D02*
X132786857Y-79716380D01*
X132405904Y-81097333D02*
X132358285Y-81049714D01*
X132263047Y-80906857D01*
X132215428Y-80811619D01*
X132167809Y-80668761D01*
X132120190Y-80430666D01*
X132120190Y-80240190D01*
X132167809Y-80002095D01*
X132215428Y-79859238D01*
X132263047Y-79764000D01*
X132358285Y-79621142D01*
X132405904Y-79573523D01*
X140128476Y-82351619D02*
X140080857Y-82304000D01*
X139985619Y-82256380D01*
X139747523Y-82256380D01*
X139652285Y-82304000D01*
X139604666Y-82351619D01*
X139557047Y-82446857D01*
X139557047Y-82542095D01*
X139604666Y-82684952D01*
X140176095Y-83256380D01*
X139557047Y-83256380D01*
X138985619Y-82684952D02*
X139080857Y-82637333D01*
X139128476Y-82589714D01*
X139176095Y-82494476D01*
X139176095Y-82446857D01*
X139128476Y-82351619D01*
X139080857Y-82304000D01*
X138985619Y-82256380D01*
X138795142Y-82256380D01*
X138699904Y-82304000D01*
X138652285Y-82351619D01*
X138604666Y-82446857D01*
X138604666Y-82494476D01*
X138652285Y-82589714D01*
X138699904Y-82637333D01*
X138795142Y-82684952D01*
X138985619Y-82684952D01*
X139080857Y-82732571D01*
X139128476Y-82780190D01*
X139176095Y-82875428D01*
X139176095Y-83065904D01*
X139128476Y-83161142D01*
X139080857Y-83208761D01*
X138985619Y-83256380D01*
X138795142Y-83256380D01*
X138699904Y-83208761D01*
X138652285Y-83161142D01*
X138604666Y-83065904D01*
X138604666Y-82875428D01*
X138652285Y-82780190D01*
X138699904Y-82732571D01*
X138795142Y-82684952D01*
X138318952Y-82256380D02*
X137985619Y-83256380D01*
X137652285Y-82256380D01*
X140128476Y-72191619D02*
X140080857Y-72144000D01*
X139985619Y-72096380D01*
X139747523Y-72096380D01*
X139652285Y-72144000D01*
X139604666Y-72191619D01*
X139557047Y-72286857D01*
X139557047Y-72382095D01*
X139604666Y-72524952D01*
X140176095Y-73096380D01*
X139557047Y-73096380D01*
X138985619Y-72524952D02*
X139080857Y-72477333D01*
X139128476Y-72429714D01*
X139176095Y-72334476D01*
X139176095Y-72286857D01*
X139128476Y-72191619D01*
X139080857Y-72144000D01*
X138985619Y-72096380D01*
X138795142Y-72096380D01*
X138699904Y-72144000D01*
X138652285Y-72191619D01*
X138604666Y-72286857D01*
X138604666Y-72334476D01*
X138652285Y-72429714D01*
X138699904Y-72477333D01*
X138795142Y-72524952D01*
X138985619Y-72524952D01*
X139080857Y-72572571D01*
X139128476Y-72620190D01*
X139176095Y-72715428D01*
X139176095Y-72905904D01*
X139128476Y-73001142D01*
X139080857Y-73048761D01*
X138985619Y-73096380D01*
X138795142Y-73096380D01*
X138699904Y-73048761D01*
X138652285Y-73001142D01*
X138604666Y-72905904D01*
X138604666Y-72715428D01*
X138652285Y-72620190D01*
X138699904Y-72572571D01*
X138795142Y-72524952D01*
X138318952Y-72096380D02*
X137985619Y-73096380D01*
X137652285Y-72096380D01*
X140017428Y-61936380D02*
X139826952Y-61936380D01*
X139731714Y-61984000D01*
X139636476Y-62079238D01*
X139588857Y-62269714D01*
X139588857Y-62603047D01*
X139636476Y-62793523D01*
X139731714Y-62888761D01*
X139826952Y-62936380D01*
X140017428Y-62936380D01*
X140112666Y-62888761D01*
X140207904Y-62793523D01*
X140255523Y-62603047D01*
X140255523Y-62269714D01*
X140207904Y-62079238D01*
X140112666Y-61984000D01*
X140017428Y-61936380D01*
X138636476Y-62936380D02*
X139207904Y-62936380D01*
X138922190Y-62936380D02*
X138922190Y-61936380D01*
X139017428Y-62079238D01*
X139112666Y-62174476D01*
X139207904Y-62222095D01*
X139438095Y-69604000D02*
X139533333Y-69556380D01*
X139676190Y-69556380D01*
X139819047Y-69604000D01*
X139914285Y-69699238D01*
X139961904Y-69794476D01*
X140009523Y-69984952D01*
X140009523Y-70127809D01*
X139961904Y-70318285D01*
X139914285Y-70413523D01*
X139819047Y-70508761D01*
X139676190Y-70556380D01*
X139580952Y-70556380D01*
X139438095Y-70508761D01*
X139390476Y-70461142D01*
X139390476Y-70127809D01*
X139580952Y-70127809D01*
X139438095Y-64524000D02*
X139533333Y-64476380D01*
X139676190Y-64476380D01*
X139819047Y-64524000D01*
X139914285Y-64619238D01*
X139961904Y-64714476D01*
X140009523Y-64904952D01*
X140009523Y-65047809D01*
X139961904Y-65238285D01*
X139914285Y-65333523D01*
X139819047Y-65428761D01*
X139676190Y-65476380D01*
X139580952Y-65476380D01*
X139438095Y-65428761D01*
X139390476Y-65381142D01*
X139390476Y-65047809D01*
X139580952Y-65047809D01*
X140017428Y-54316380D02*
X139826952Y-54316380D01*
X139731714Y-54364000D01*
X139636476Y-54459238D01*
X139588857Y-54649714D01*
X139588857Y-54983047D01*
X139636476Y-55173523D01*
X139731714Y-55268761D01*
X139826952Y-55316380D01*
X140017428Y-55316380D01*
X140112666Y-55268761D01*
X140207904Y-55173523D01*
X140255523Y-54983047D01*
X140255523Y-54649714D01*
X140207904Y-54459238D01*
X140112666Y-54364000D01*
X140017428Y-54316380D01*
X139207904Y-54411619D02*
X139160285Y-54364000D01*
X139065047Y-54316380D01*
X138826952Y-54316380D01*
X138731714Y-54364000D01*
X138684095Y-54411619D01*
X138636476Y-54506857D01*
X138636476Y-54602095D01*
X138684095Y-54744952D01*
X139255523Y-55316380D01*
X138636476Y-55316380D01*
X140136476Y-49712571D02*
X139803142Y-49712571D01*
X139660285Y-50236380D02*
X140136476Y-50236380D01*
X140136476Y-49236380D01*
X139660285Y-49236380D01*
X139279333Y-49331619D02*
X139231714Y-49284000D01*
X139136476Y-49236380D01*
X138898380Y-49236380D01*
X138803142Y-49284000D01*
X138755523Y-49331619D01*
X138707904Y-49426857D01*
X138707904Y-49522095D01*
X138755523Y-49664952D01*
X139326952Y-50236380D01*
X138707904Y-50236380D01*
X140128095Y-88336380D02*
X140128095Y-87336380D01*
X139747142Y-87336380D01*
X139651904Y-87384000D01*
X139604285Y-87431619D01*
X139556666Y-87526857D01*
X139556666Y-87669714D01*
X139604285Y-87764952D01*
X139651904Y-87812571D01*
X139747142Y-87860190D01*
X140128095Y-87860190D01*
X139128095Y-88336380D02*
X139128095Y-87336380D01*
X138890000Y-87336380D01*
X138747142Y-87384000D01*
X138651904Y-87479238D01*
X138604285Y-87574476D01*
X138556666Y-87764952D01*
X138556666Y-87907809D01*
X138604285Y-88098285D01*
X138651904Y-88193523D01*
X138747142Y-88288761D01*
X138890000Y-88336380D01*
X139128095Y-88336380D01*
X136794761Y-88241142D02*
X136842380Y-88288761D01*
X136985238Y-88336380D01*
X137080476Y-88336380D01*
X137223333Y-88288761D01*
X137318571Y-88193523D01*
X137366190Y-88098285D01*
X137413809Y-87907809D01*
X137413809Y-87764952D01*
X137366190Y-87574476D01*
X137318571Y-87479238D01*
X137223333Y-87384000D01*
X137080476Y-87336380D01*
X136985238Y-87336380D01*
X136842380Y-87384000D01*
X136794761Y-87431619D01*
X136509047Y-87336380D02*
X135937619Y-87336380D01*
X136223333Y-88336380D02*
X136223333Y-87336380D01*
X135128095Y-88336380D02*
X135604285Y-88336380D01*
X135604285Y-87336380D01*
X133747142Y-88717333D02*
X133794761Y-88669714D01*
X133890000Y-88526857D01*
X133937619Y-88431619D01*
X133985238Y-88288761D01*
X134032857Y-88050666D01*
X134032857Y-87860190D01*
X133985238Y-87622095D01*
X133937619Y-87479238D01*
X133890000Y-87384000D01*
X133794761Y-87241142D01*
X133747142Y-87193523D01*
X133366190Y-88336380D02*
X133366190Y-87336380D01*
X132794761Y-88336380D01*
X132794761Y-87336380D01*
X132318571Y-88336380D02*
X132318571Y-87336380D01*
X131937619Y-88717333D02*
X131890000Y-88669714D01*
X131794761Y-88526857D01*
X131747142Y-88431619D01*
X131699523Y-88288761D01*
X131651904Y-88050666D01*
X131651904Y-87860190D01*
X131699523Y-87622095D01*
X131747142Y-87479238D01*
X131794761Y-87384000D01*
X131890000Y-87241142D01*
X131937619Y-87193523D01*
X139779047Y-77652571D02*
X140112380Y-77652571D01*
X140112380Y-78176380D02*
X140112380Y-77176380D01*
X139636190Y-77176380D01*
X138683809Y-78176380D02*
X139017142Y-77700190D01*
X139255238Y-78176380D02*
X139255238Y-77176380D01*
X138874285Y-77176380D01*
X138779047Y-77224000D01*
X138731428Y-77271619D01*
X138683809Y-77366857D01*
X138683809Y-77509714D01*
X138731428Y-77604952D01*
X138779047Y-77652571D01*
X138874285Y-77700190D01*
X139255238Y-77700190D01*
X138064761Y-77176380D02*
X137874285Y-77176380D01*
X137779047Y-77224000D01*
X137683809Y-77319238D01*
X137636190Y-77509714D01*
X137636190Y-77843047D01*
X137683809Y-78033523D01*
X137779047Y-78128761D01*
X137874285Y-78176380D01*
X138064761Y-78176380D01*
X138160000Y-78128761D01*
X138255238Y-78033523D01*
X138302857Y-77843047D01*
X138302857Y-77509714D01*
X138255238Y-77319238D01*
X138160000Y-77224000D01*
X138064761Y-77176380D01*
X137207619Y-78176380D02*
X137207619Y-77176380D01*
X136874285Y-77890666D01*
X136540952Y-77176380D01*
X136540952Y-78176380D01*
X134826666Y-78176380D02*
X135302857Y-78176380D01*
X135302857Y-77176380D01*
X134636190Y-77176380D02*
X134064761Y-77176380D01*
X134350476Y-78176380D02*
X134350476Y-77176380D01*
X140207904Y-57808761D02*
X140065047Y-57856380D01*
X139826952Y-57856380D01*
X139731714Y-57808761D01*
X139684095Y-57761142D01*
X139636476Y-57665904D01*
X139636476Y-57570666D01*
X139684095Y-57475428D01*
X139731714Y-57427809D01*
X139826952Y-57380190D01*
X140017428Y-57332571D01*
X140112666Y-57284952D01*
X140160285Y-57237333D01*
X140207904Y-57142095D01*
X140207904Y-57046857D01*
X140160285Y-56951619D01*
X140112666Y-56904000D01*
X140017428Y-56856380D01*
X139779333Y-56856380D01*
X139636476Y-56904000D01*
X139255523Y-56951619D02*
X139207904Y-56904000D01*
X139112666Y-56856380D01*
X138874571Y-56856380D01*
X138779333Y-56904000D01*
X138731714Y-56951619D01*
X138684095Y-57046857D01*
X138684095Y-57142095D01*
X138731714Y-57284952D01*
X139303142Y-57856380D01*
X138684095Y-57856380D01*
X140207904Y-60602761D02*
X140065047Y-60650380D01*
X139826952Y-60650380D01*
X139731714Y-60602761D01*
X139684095Y-60555142D01*
X139636476Y-60459904D01*
X139636476Y-60364666D01*
X139684095Y-60269428D01*
X139731714Y-60221809D01*
X139826952Y-60174190D01*
X140017428Y-60126571D01*
X140112666Y-60078952D01*
X140160285Y-60031333D01*
X140207904Y-59936095D01*
X140207904Y-59840857D01*
X140160285Y-59745619D01*
X140112666Y-59698000D01*
X140017428Y-59650380D01*
X139779333Y-59650380D01*
X139636476Y-59698000D01*
X138684095Y-60650380D02*
X139255523Y-60650380D01*
X138969809Y-60650380D02*
X138969809Y-59650380D01*
X139065047Y-59793238D01*
X139160285Y-59888476D01*
X139255523Y-59936095D01*
X139438095Y-67064000D02*
X139533333Y-67016380D01*
X139676190Y-67016380D01*
X139819047Y-67064000D01*
X139914285Y-67159238D01*
X139961904Y-67254476D01*
X140009523Y-67444952D01*
X140009523Y-67587809D01*
X139961904Y-67778285D01*
X139914285Y-67873523D01*
X139819047Y-67968761D01*
X139676190Y-68016380D01*
X139580952Y-68016380D01*
X139438095Y-67968761D01*
X139390476Y-67921142D01*
X139390476Y-67587809D01*
X139580952Y-67587809D01*
X140136476Y-52252571D02*
X139803142Y-52252571D01*
X139660285Y-52776380D02*
X140136476Y-52776380D01*
X140136476Y-51776380D01*
X139660285Y-51776380D01*
X138707904Y-52776380D02*
X139279333Y-52776380D01*
X138993619Y-52776380D02*
X138993619Y-51776380D01*
X139088857Y-51919238D01*
X139184095Y-52014476D01*
X139279333Y-52062095D01*
%LPC*%
D11*
X127000000Y-43000000D03*
X141000000Y-43000000D03*
X127000000Y-95000000D03*
X141000000Y-95000000D03*
D12*
X142240000Y-87884000D03*
D13*
X142240000Y-85344000D03*
X142240000Y-82804000D03*
X142240000Y-80264000D03*
X142240000Y-77724000D03*
X142240000Y-75184000D03*
X142240000Y-72644000D03*
X142240000Y-70104000D03*
X142240000Y-67564000D03*
X142240000Y-65024000D03*
X142240000Y-62484000D03*
X142240000Y-59944000D03*
X142240000Y-57404000D03*
X142240000Y-54864000D03*
X142240000Y-52324000D03*
X142240000Y-49784000D03*
M02*
