%FSLAX45Y45*%
G04 Gerber Fmt 4.5, Leading zero omitted, Abs format (unit mm)*
G04 Created by KiCad (PCBNEW 6.0.2+dfsg-1) date 2022-07-08 08:02:09*
%MOMM*%
%LPD*%
G01*
G04 APERTURE LIST*
%TA.AperFunction,Profile*%
%ADD10C,0.150000*%
%TD*%
%ADD11C,0.200000*%
G04 APERTURE END LIST*
D10*
X12300000Y-9900000D02*
X12300000Y-3900000D01*
X12300000Y-3900000D02*
X14500000Y-3900000D01*
X14500000Y-3900000D02*
X14500000Y-9900000D01*
X14500000Y-9900000D02*
X12300000Y-9900000D01*
D11*
X12550119Y-10217976D02*
X12550119Y-10017976D01*
X12597738Y-10017976D01*
X12626309Y-10027500D01*
X12645357Y-10046548D01*
X12654881Y-10065595D01*
X12664405Y-10103690D01*
X12664405Y-10132262D01*
X12654881Y-10170357D01*
X12645357Y-10189405D01*
X12626309Y-10208452D01*
X12597738Y-10217976D01*
X12550119Y-10217976D01*
X12750119Y-10217976D02*
X12750119Y-10084643D01*
X12750119Y-10122738D02*
X12759643Y-10103690D01*
X12769167Y-10094167D01*
X12788214Y-10084643D01*
X12807262Y-10084643D01*
X12873928Y-10217976D02*
X12873928Y-10084643D01*
X12873928Y-10017976D02*
X12864405Y-10027500D01*
X12873928Y-10037024D01*
X12883452Y-10027500D01*
X12873928Y-10017976D01*
X12873928Y-10037024D01*
X12997738Y-10217976D02*
X12978690Y-10208452D01*
X12969167Y-10189405D01*
X12969167Y-10017976D01*
X13102500Y-10217976D02*
X13083452Y-10208452D01*
X13073928Y-10189405D01*
X13073928Y-10017976D01*
X13331071Y-10217976D02*
X13331071Y-10017976D01*
X13397738Y-10160833D01*
X13464405Y-10017976D01*
X13464405Y-10217976D01*
X13645357Y-10217976D02*
X13645357Y-10113214D01*
X13635833Y-10094167D01*
X13616786Y-10084643D01*
X13578690Y-10084643D01*
X13559643Y-10094167D01*
X13645357Y-10208452D02*
X13626309Y-10217976D01*
X13578690Y-10217976D01*
X13559643Y-10208452D01*
X13550119Y-10189405D01*
X13550119Y-10170357D01*
X13559643Y-10151310D01*
X13578690Y-10141786D01*
X13626309Y-10141786D01*
X13645357Y-10132262D01*
X13740595Y-10084643D02*
X13740595Y-10284643D01*
X13740595Y-10094167D02*
X13759643Y-10084643D01*
X13797738Y-10084643D01*
X13816786Y-10094167D01*
X13826309Y-10103690D01*
X13835833Y-10122738D01*
X13835833Y-10179881D01*
X13826309Y-10198929D01*
X13816786Y-10208452D01*
X13797738Y-10217976D01*
X13759643Y-10217976D01*
X13740595Y-10208452D01*
X13921548Y-10198929D02*
X13931071Y-10208452D01*
X13921548Y-10217976D01*
X13912024Y-10208452D01*
X13921548Y-10198929D01*
X13921548Y-10217976D01*
X13921548Y-10094167D02*
X13931071Y-10103690D01*
X13921548Y-10113214D01*
X13912024Y-10103690D01*
X13921548Y-10094167D01*
X13921548Y-10113214D01*
M02*
