M48
; DRILL file {KiCad 6.0.2+dfsg-1} date Fri 08 Jul 2022 08:01:46 AM PDT
; FORMAT={-:-/ absolute / metric / decimal}
; #@! TF.CreationDate,2022-07-08T08:01:46-07:00
; #@! TF.GenerationSoftware,Kicad,Pcbnew,6.0.2+dfsg-1
; #@! TF.FileFunction,Plated,1,2,PTH
FMAT,2
METRIC
; #@! TA.AperFunction,Plated,PTH,ViaDrill
T1C0.254
; #@! TA.AperFunction,Plated,PTH,ComponentDrill
T2C1.000
; #@! TA.AperFunction,Plated,PTH,ComponentDrill
T3C3.000
%
G90
G05
T1
X125.857Y-68.546
X126.644Y-57.721
X129.731Y-63.5
X133.096Y-80.579
X133.096Y-90.109
X135.185Y-51.752
X135.293Y-80.264
X135.5Y-86.091
X135.763Y-72.898
X135.763Y-73.406
X135.763Y-73.914
X136.017Y-58.293
X136.017Y-56.769
X136.271Y-72.898
X136.271Y-73.406
X136.271Y-73.914
X136.398Y-64.516
X136.398Y-65.024
X136.398Y-65.532
X136.779Y-72.898
X136.779Y-73.406
X136.779Y-73.914
X136.906Y-64.516
X136.906Y-65.024
X136.906Y-65.532
X137.287Y-72.898
X137.287Y-73.406
X137.287Y-73.914
X137.414Y-64.516
X137.414Y-65.024
X137.414Y-65.532
X138.201Y-69.596
X138.43Y-55.164
X138.43Y-59.921
X138.989Y-66.497
T2
X142.24Y-49.784
X142.24Y-52.324
X142.24Y-54.864
X142.24Y-57.404
X142.24Y-59.944
X142.24Y-62.484
X142.24Y-65.024
X142.24Y-67.564
X142.24Y-70.104
X142.24Y-72.644
X142.24Y-75.184
X142.24Y-77.724
X142.24Y-80.264
X142.24Y-82.804
X142.24Y-85.344
X142.24Y-87.884
T3
X127.0Y-43.0
X127.0Y-95.0
X141.0Y-43.0
X141.0Y-95.0
T0
M30
