G04 #@! TF.GenerationSoftware,KiCad,Pcbnew,6.0.2+dfsg-1*
G04 #@! TF.CreationDate,2022-07-08T08:01:06-07:00*
G04 #@! TF.ProjectId,behavior_panel,62656861-7669-46f7-925f-70616e656c2e,rev?*
G04 #@! TF.SameCoordinates,Original*
G04 #@! TF.FileFunction,Paste,Top*
G04 #@! TF.FilePolarity,Positive*
%FSLAX46Y46*%
G04 Gerber Fmt 4.6, Leading zero omitted, Abs format (unit mm)*
G04 Created by KiCad (PCBNEW 6.0.2+dfsg-1) date 2022-07-08 08:01:06*
%MOMM*%
%LPD*%
G01*
G04 APERTURE LIST*
G04 Aperture macros list*
%AMRoundRect*
0 Rectangle with rounded corners*
0 $1 Rounding radius*
0 $2 $3 $4 $5 $6 $7 $8 $9 X,Y pos of 4 corners*
0 Add a 4 corners polygon primitive as box body*
4,1,4,$2,$3,$4,$5,$6,$7,$8,$9,$2,$3,0*
0 Add four circle primitives for the rounded corners*
1,1,$1+$1,$2,$3*
1,1,$1+$1,$4,$5*
1,1,$1+$1,$6,$7*
1,1,$1+$1,$8,$9*
0 Add four rect primitives between the rounded corners*
20,1,$1+$1,$2,$3,$4,$5,0*
20,1,$1+$1,$4,$5,$6,$7,0*
20,1,$1+$1,$6,$7,$8,$9,0*
20,1,$1+$1,$8,$9,$2,$3,0*%
G04 Aperture macros list end*
%ADD10RoundRect,0.218750X-0.218750X-0.256250X0.218750X-0.256250X0.218750X0.256250X-0.218750X0.256250X0*%
%ADD11RoundRect,0.147500X-0.172500X0.147500X-0.172500X-0.147500X0.172500X-0.147500X0.172500X0.147500X0*%
%ADD12RoundRect,0.147500X-0.147500X-0.172500X0.147500X-0.172500X0.147500X0.172500X-0.147500X0.172500X0*%
%ADD13RoundRect,0.147500X0.172500X-0.147500X0.172500X0.147500X-0.172500X0.147500X-0.172500X-0.147500X0*%
%ADD14RoundRect,0.218750X0.218750X0.256250X-0.218750X0.256250X-0.218750X-0.256250X0.218750X-0.256250X0*%
%ADD15RoundRect,0.243750X0.243750X0.456250X-0.243750X0.456250X-0.243750X-0.456250X0.243750X-0.456250X0*%
%ADD16R,2.000000X1.500000*%
%ADD17R,2.000000X3.800000*%
%ADD18RoundRect,0.250000X-0.625000X0.375000X-0.625000X-0.375000X0.625000X-0.375000X0.625000X0.375000X0*%
%ADD19RoundRect,0.147500X0.147500X0.172500X-0.147500X0.172500X-0.147500X-0.172500X0.147500X-0.172500X0*%
%ADD20RoundRect,0.243750X0.456250X-0.243750X0.456250X0.243750X-0.456250X0.243750X-0.456250X-0.243750X0*%
%ADD21R,1.450000X0.450000*%
%ADD22RoundRect,0.250000X-0.375000X-0.625000X0.375000X-0.625000X0.375000X0.625000X-0.375000X0.625000X0*%
%ADD23R,1.780000X1.500000*%
%ADD24R,0.900000X0.800000*%
%ADD25R,3.050000X2.750000*%
%ADD26R,2.200000X1.200000*%
%ADD27RoundRect,0.218750X0.256250X-0.218750X0.256250X0.218750X-0.256250X0.218750X-0.256250X-0.218750X0*%
G04 APERTURE END LIST*
D10*
X134442000Y-58293000D03*
X136017000Y-58293000D03*
X134429500Y-60833000D03*
X136004500Y-60833000D03*
D11*
X138430000Y-55164000D03*
X138430000Y-56134000D03*
X137287000Y-55141000D03*
X137287000Y-56111000D03*
D12*
X134175500Y-59563000D03*
X135145500Y-59563000D03*
X134198500Y-55499000D03*
X135168500Y-55499000D03*
D13*
X137287000Y-59921000D03*
X137287000Y-58951000D03*
D14*
X138201400Y-69596000D03*
X136626400Y-69596000D03*
D15*
X131605500Y-63500000D03*
X129730500Y-63500000D03*
D16*
X128282300Y-65873600D03*
X128282300Y-68173600D03*
D17*
X134582300Y-68173600D03*
D16*
X128282300Y-70473600D03*
D18*
X137033000Y-65081500D03*
X137033000Y-67881500D03*
D15*
X135064500Y-63500000D03*
X133189500Y-63500000D03*
D19*
X136263000Y-80264000D03*
X135293000Y-80264000D03*
D13*
X138430000Y-59921000D03*
X138430000Y-58951000D03*
D20*
X125857000Y-70421500D03*
X125857000Y-68546500D03*
D21*
X132544400Y-59671500D03*
X132544400Y-59021500D03*
X132544400Y-58371500D03*
X132544400Y-57721500D03*
X132544400Y-57071500D03*
X132544400Y-56421500D03*
X132544400Y-55771500D03*
X126644400Y-55771500D03*
X126644400Y-56421500D03*
X126644400Y-57071500D03*
X126644400Y-57721500D03*
X126644400Y-58371500D03*
X126644400Y-59021500D03*
X126644400Y-59671500D03*
D22*
X135185500Y-49212500D03*
X137985500Y-49212500D03*
D10*
X134429500Y-54229000D03*
X136004500Y-54229000D03*
X134442100Y-56769000D03*
X136017100Y-56769000D03*
D22*
X135185500Y-51752500D03*
X137985500Y-51752500D03*
D13*
X136575800Y-82730200D03*
X136575800Y-81760200D03*
D15*
X137386300Y-88036400D03*
X135511300Y-88036400D03*
D13*
X137668000Y-82730200D03*
X137668000Y-81760200D03*
D23*
X130556000Y-90109000D03*
X133096000Y-90109000D03*
X133096000Y-80579000D03*
X130556000Y-80579000D03*
D24*
X135499600Y-84190800D03*
X135499600Y-86090800D03*
X137499600Y-85140800D03*
D25*
X132064500Y-77216000D03*
X128714500Y-77216000D03*
X132064500Y-74166000D03*
X128714500Y-74166000D03*
D26*
X136689500Y-77971000D03*
X136689500Y-73411000D03*
D27*
X138988800Y-68072100D03*
X138988800Y-66497100D03*
M02*
