G04 #@! TF.GenerationSoftware,KiCad,Pcbnew,6.0.2+dfsg-1*
G04 #@! TF.CreationDate,2022-07-08T08:01:06-07:00*
G04 #@! TF.ProjectId,behavior_panel,62656861-7669-46f7-925f-70616e656c2e,rev?*
G04 #@! TF.SameCoordinates,Original*
G04 #@! TF.FileFunction,Legend,Top*
G04 #@! TF.FilePolarity,Positive*
%FSLAX46Y46*%
G04 Gerber Fmt 4.6, Leading zero omitted, Abs format (unit mm)*
G04 Created by KiCad (PCBNEW 6.0.2+dfsg-1) date 2022-07-08 08:01:06*
%MOMM*%
%LPD*%
G01*
G04 APERTURE LIST*
G04 Aperture macros list*
%AMRoundRect*
0 Rectangle with rounded corners*
0 $1 Rounding radius*
0 $2 $3 $4 $5 $6 $7 $8 $9 X,Y pos of 4 corners*
0 Add a 4 corners polygon primitive as box body*
4,1,4,$2,$3,$4,$5,$6,$7,$8,$9,$2,$3,0*
0 Add four circle primitives for the rounded corners*
1,1,$1+$1,$2,$3*
1,1,$1+$1,$4,$5*
1,1,$1+$1,$6,$7*
1,1,$1+$1,$8,$9*
0 Add four rect primitives between the rounded corners*
20,1,$1+$1,$2,$3,$4,$5,0*
20,1,$1+$1,$4,$5,$6,$7,0*
20,1,$1+$1,$6,$7,$8,$9,0*
20,1,$1+$1,$8,$9,$2,$3,0*%
G04 Aperture macros list end*
%ADD10C,0.120000*%
%ADD11C,0.150000*%
%ADD12RoundRect,0.418750X-0.218750X-0.256250X0.218750X-0.256250X0.218750X0.256250X-0.218750X0.256250X0*%
%ADD13RoundRect,0.347500X-0.172500X0.147500X-0.172500X-0.147500X0.172500X-0.147500X0.172500X0.147500X0*%
%ADD14RoundRect,0.347500X-0.147500X-0.172500X0.147500X-0.172500X0.147500X0.172500X-0.147500X0.172500X0*%
%ADD15RoundRect,0.347500X0.172500X-0.147500X0.172500X0.147500X-0.172500X0.147500X-0.172500X-0.147500X0*%
%ADD16RoundRect,0.418750X0.218750X0.256250X-0.218750X0.256250X-0.218750X-0.256250X0.218750X-0.256250X0*%
%ADD17RoundRect,0.443750X0.243750X0.456250X-0.243750X0.456250X-0.243750X-0.456250X0.243750X-0.456250X0*%
%ADD18RoundRect,0.200000X-1.000000X-0.750000X1.000000X-0.750000X1.000000X0.750000X-1.000000X0.750000X0*%
%ADD19RoundRect,0.200000X-1.000000X-1.900000X1.000000X-1.900000X1.000000X1.900000X-1.000000X1.900000X0*%
%ADD20RoundRect,0.450000X-0.625000X0.375000X-0.625000X-0.375000X0.625000X-0.375000X0.625000X0.375000X0*%
%ADD21RoundRect,0.347500X0.147500X0.172500X-0.147500X0.172500X-0.147500X-0.172500X0.147500X-0.172500X0*%
%ADD22C,6.400000*%
%ADD23RoundRect,0.443750X0.456250X-0.243750X0.456250X0.243750X-0.456250X0.243750X-0.456250X-0.243750X0*%
%ADD24RoundRect,0.200000X0.725000X0.225000X-0.725000X0.225000X-0.725000X-0.225000X0.725000X-0.225000X0*%
%ADD25RoundRect,0.450000X-0.375000X-0.625000X0.375000X-0.625000X0.375000X0.625000X-0.375000X0.625000X0*%
%ADD26RoundRect,0.200000X0.850000X0.850000X-0.850000X0.850000X-0.850000X-0.850000X0.850000X-0.850000X0*%
%ADD27O,2.100000X2.100000*%
%ADD28RoundRect,0.200000X0.890000X-0.750000X0.890000X0.750000X-0.890000X0.750000X-0.890000X-0.750000X0*%
%ADD29RoundRect,0.200000X-0.450000X-0.400000X0.450000X-0.400000X0.450000X0.400000X-0.450000X0.400000X0*%
%ADD30RoundRect,0.200000X1.100000X0.600000X-1.100000X0.600000X-1.100000X-0.600000X1.100000X-0.600000X0*%
%ADD31RoundRect,0.200000X3.200000X2.900000X-3.200000X2.900000X-3.200000X-2.900000X3.200000X-2.900000X0*%
%ADD32RoundRect,0.418750X0.256250X-0.218750X0.256250X0.218750X-0.256250X0.218750X-0.256250X-0.218750X0*%
G04 APERTURE END LIST*
D10*
X135066721Y-58803000D02*
X135392279Y-58803000D01*
X135066721Y-57783000D02*
X135392279Y-57783000D01*
X135054221Y-61343000D02*
X135379779Y-61343000D01*
X135054221Y-60323000D02*
X135379779Y-60323000D01*
X137576679Y-69086000D02*
X137251121Y-69086000D01*
X137576679Y-70106000D02*
X137251121Y-70106000D01*
X130926578Y-62790000D02*
X130409422Y-62790000D01*
X130926578Y-64210000D02*
X130409422Y-64210000D01*
X133342300Y-71583600D02*
X133342300Y-70323600D01*
X129582300Y-71583600D02*
X133342300Y-71583600D01*
X127332300Y-64763600D02*
X133342300Y-64763600D01*
X133342300Y-64763600D02*
X133342300Y-66023600D01*
X136123000Y-65879436D02*
X136123000Y-67083564D01*
X137943000Y-65879436D02*
X137943000Y-67083564D01*
X134385578Y-62790000D02*
X133868422Y-62790000D01*
X134385578Y-64210000D02*
X133868422Y-64210000D01*
X125147000Y-69742578D02*
X125147000Y-69225422D01*
X126567000Y-69742578D02*
X126567000Y-69225422D01*
D11*
X131919400Y-55096500D02*
X127269400Y-55096500D01*
X131919400Y-60221500D02*
X133269400Y-60221500D01*
X131919400Y-60346500D02*
X131919400Y-60221500D01*
X131919400Y-55096500D02*
X131919400Y-55321500D01*
X127269400Y-60346500D02*
X127269400Y-60121500D01*
X131919400Y-60346500D02*
X127269400Y-60346500D01*
X127269400Y-55096500D02*
X127269400Y-55321500D01*
D10*
X135983436Y-50122500D02*
X137187564Y-50122500D01*
X135983436Y-48302500D02*
X137187564Y-48302500D01*
X135054221Y-53719000D02*
X135379779Y-53719000D01*
X135054221Y-54739000D02*
X135379779Y-54739000D01*
X135066821Y-56259000D02*
X135392379Y-56259000D01*
X135066821Y-57279000D02*
X135392379Y-57279000D01*
X135983436Y-50842500D02*
X137187564Y-50842500D01*
X135983436Y-52662500D02*
X137187564Y-52662500D01*
X143570000Y-89214000D02*
X142240000Y-89214000D01*
X143570000Y-86614000D02*
X140910000Y-86614000D01*
X143570000Y-86614000D02*
X143570000Y-48454000D01*
X140910000Y-86614000D02*
X140910000Y-48454000D01*
X143570000Y-48454000D02*
X140910000Y-48454000D01*
X143570000Y-87884000D02*
X143570000Y-89214000D01*
X136707378Y-88746400D02*
X136190222Y-88746400D01*
X136707378Y-87326400D02*
X136190222Y-87326400D01*
X129226000Y-82109000D02*
X129226000Y-84344000D01*
X134426000Y-88579000D02*
X134426000Y-82109000D01*
X134426000Y-82109000D02*
X129226000Y-82109000D01*
X129226000Y-88579000D02*
X134426000Y-88579000D01*
X129226000Y-86344000D02*
X129226000Y-88579000D01*
X129226000Y-86344000D02*
G75*
G03*
X129226000Y-84344000I0J1000000D01*
G01*
X137259600Y-86720800D02*
X137259600Y-85790800D01*
X137259600Y-83560800D02*
X137259600Y-84490800D01*
X137259600Y-83560800D02*
X135099600Y-83560800D01*
X137259600Y-86720800D02*
X135799600Y-86720800D01*
X134959500Y-79141000D02*
X134959500Y-78871000D01*
X134959500Y-72241000D02*
X134959500Y-72511000D01*
X133459500Y-72241000D02*
X134959500Y-72241000D01*
X134959500Y-78871000D02*
X137789500Y-78871000D01*
X133459500Y-79141000D02*
X134959500Y-79141000D01*
X134959500Y-72511000D02*
X136059500Y-72511000D01*
X138478800Y-67447379D02*
X138478800Y-67121821D01*
X139498800Y-67447379D02*
X139498800Y-67121821D01*
%LPC*%
D12*
X134442000Y-58293000D03*
X136017000Y-58293000D03*
X134429500Y-60833000D03*
X136004500Y-60833000D03*
D13*
X138430000Y-55164000D03*
X138430000Y-56134000D03*
X137287000Y-55141000D03*
X137287000Y-56111000D03*
D14*
X134175500Y-59563000D03*
X135145500Y-59563000D03*
X134198500Y-55499000D03*
X135168500Y-55499000D03*
D15*
X137287000Y-59921000D03*
X137287000Y-58951000D03*
D16*
X138201400Y-69596000D03*
X136626400Y-69596000D03*
D17*
X131605500Y-63500000D03*
X129730500Y-63500000D03*
D18*
X128282300Y-65873600D03*
X128282300Y-68173600D03*
D19*
X134582300Y-68173600D03*
D18*
X128282300Y-70473600D03*
D20*
X137033000Y-65081500D03*
X137033000Y-67881500D03*
D17*
X135064500Y-63500000D03*
X133189500Y-63500000D03*
D21*
X136263000Y-80264000D03*
X135293000Y-80264000D03*
D22*
X127000000Y-43000000D03*
X141000000Y-43000000D03*
X127000000Y-95000000D03*
X141000000Y-95000000D03*
D15*
X138430000Y-59921000D03*
X138430000Y-58951000D03*
D23*
X125857000Y-70421500D03*
X125857000Y-68546500D03*
D24*
X132544400Y-59671500D03*
X132544400Y-59021500D03*
X132544400Y-58371500D03*
X132544400Y-57721500D03*
X132544400Y-57071500D03*
X132544400Y-56421500D03*
X132544400Y-55771500D03*
X126644400Y-55771500D03*
X126644400Y-56421500D03*
X126644400Y-57071500D03*
X126644400Y-57721500D03*
X126644400Y-58371500D03*
X126644400Y-59021500D03*
X126644400Y-59671500D03*
D25*
X135185500Y-49212500D03*
X137985500Y-49212500D03*
D12*
X134429500Y-54229000D03*
X136004500Y-54229000D03*
X134442100Y-56769000D03*
X136017100Y-56769000D03*
D25*
X135185500Y-51752500D03*
X137985500Y-51752500D03*
D26*
X142240000Y-87884000D03*
D27*
X142240000Y-85344000D03*
X142240000Y-82804000D03*
X142240000Y-80264000D03*
X142240000Y-77724000D03*
X142240000Y-75184000D03*
X142240000Y-72644000D03*
X142240000Y-70104000D03*
X142240000Y-67564000D03*
X142240000Y-65024000D03*
X142240000Y-62484000D03*
X142240000Y-59944000D03*
X142240000Y-57404000D03*
X142240000Y-54864000D03*
X142240000Y-52324000D03*
X142240000Y-49784000D03*
D15*
X136575800Y-82730200D03*
X136575800Y-81760200D03*
D17*
X137386300Y-88036400D03*
X135511300Y-88036400D03*
D15*
X137668000Y-82730200D03*
X137668000Y-81760200D03*
D28*
X130556000Y-90109000D03*
X133096000Y-90109000D03*
X133096000Y-80579000D03*
X130556000Y-80579000D03*
D29*
X135499600Y-84190800D03*
X135499600Y-86090800D03*
X137499600Y-85140800D03*
D30*
X136689500Y-77971000D03*
D31*
X130389500Y-75691000D03*
D30*
X136689500Y-73411000D03*
D32*
X138988800Y-68072100D03*
X138988800Y-66497100D03*
M02*
